<?xml version="1.0" encoding="UTF-8" standalone="no"?>
<!-- Created with Inkscape (http://www.inkscape.org/) -->

<svg
   xmlns:dc="http://purl.org/dc/elements/1.1/"
   xmlns:cc="http://creativecommons.org/ns#"
   xmlns:rdf="http://www.w3.org/1999/02/22-rdf-syntax-ns#"
   xmlns:svg="http://www.w3.org/2000/svg"
   xmlns="http://www.w3.org/2000/svg"
   xmlns:sodipodi="http://sodipodi.sourceforge.net/DTD/sodipodi-0.dtd"
   xmlns:inkscape="http://www.inkscape.org/namespaces/inkscape"
   width="744.09448819"
   height="1052.3622047"
   id="svg2"
   version="1.1"
   inkscape:version="0.48.2 r9819"
   sodipodi:docname="eziplode_02zipfile.svg">
  <defs
     id="defs4">
    <marker
       inkscape:stockid="Arrow2Mend"
       orient="auto"
       refY="0.0"
       refX="0.0"
       id="Arrow2Mend"
       style="overflow:visible;">
      <path
         id="path3882"
         style="font-size:12.0;fill-rule:evenodd;stroke-width:0.62500000;stroke-linejoin:round;"
         d="M 8.7185878,4.0337352 L -2.2072895,0.016013256 L 8.7185884,-4.0017078 C 6.9730900,-1.6296469 6.9831476,1.6157441 8.7185878,4.0337352 z "
         transform="scale(0.6) rotate(180) translate(0,0)" />
    </marker>
    <marker
       inkscape:stockid="Arrow1Lstart"
       orient="auto"
       refY="0.0"
       refX="0.0"
       id="Arrow1Lstart"
       style="overflow:visible">
      <path
         id="path3855"
         d="M 0.0,0.0 L 5.0,-5.0 L -12.5,0.0 L 5.0,5.0 L 0.0,0.0 z "
         style="fill-rule:evenodd;stroke:#000000;stroke-width:1.0pt;marker-start:none"
         transform="scale(0.8) translate(12.5,0)" />
    </marker>
    <marker
       inkscape:stockid="Arrow2Lend"
       orient="auto"
       refY="0.0"
       refX="0.0"
       id="Arrow2Lend"
       style="overflow:visible;">
      <path
         id="path3876"
         style="font-size:12.0;fill-rule:evenodd;stroke-width:0.62500000;stroke-linejoin:round;"
         d="M 8.7185878,4.0337352 L -2.2072895,0.016013256 L 8.7185884,-4.0017078 C 6.9730900,-1.6296469 6.9831476,1.6157441 8.7185878,4.0337352 z "
         transform="scale(1.1) rotate(180) translate(1,0)" />
    </marker>
    <marker
       inkscape:stockid="Arrow1Lend"
       orient="auto"
       refY="0.0"
       refX="0.0"
       id="Arrow1Lend"
       style="overflow:visible;">
      <path
         id="path3858"
         d="M 0.0,0.0 L 5.0,-5.0 L -12.5,0.0 L 5.0,5.0 L 0.0,0.0 z "
         style="fill-rule:evenodd;stroke:#000000;stroke-width:1.0pt;marker-start:none;"
         transform="scale(0.8) rotate(180) translate(12.5,0)" />
    </marker>
  </defs>
  <sodipodi:namedview
     id="base"
     pagecolor="#ffffff"
     bordercolor="#666666"
     borderopacity="1.0"
     inkscape:pageopacity="0.0"
     inkscape:pageshadow="2"
     inkscape:zoom="0.7"
     inkscape:cx="145.71429"
     inkscape:cy="455.16581"
     inkscape:document-units="px"
     inkscape:current-layer="layer1"
     showgrid="false"
     inkscape:snap-global="true"
     inkscape:window-width="1440"
     inkscape:window-height="842"
     inkscape:window-x="0"
     inkscape:window-y="30"
     inkscape:window-maximized="1" />
  <metadata
     id="metadata7">
    <rdf:RDF>
      <cc:Work
         rdf:about="">
        <dc:format>image/svg+xml</dc:format>
        <dc:type
           rdf:resource="http://purl.org/dc/dcmitype/StillImage" />
        <dc:title />
      </cc:Work>
    </rdf:RDF>
  </metadata>
  <g
     inkscape:label="Layer 1"
     inkscape:groupmode="layer"
     id="layer1">
    <path
       style="fill:#ffa200;fill-opacity:1"
       d="m 163.27661,339.87964 c -10.49601,-1.933 -19.06571,-7.00845 -23.8943,-14.15158 -2.96948,-4.39278 -3.45497,-8.43259 -3.45497,-28.74929 0,-20.13714 0.50304,-24.39694 3.39731,-28.76027 4.96329,-7.48277 14.94131,-12.9255 26.78293,-14.60919 6.98314,-0.99289 61.03088,-1.31161 180.60728,-1.06487 l 170.64202,0.35191 8.65324,2.91989 c 5.1741,1.74589 10.79971,5.04124 13.99186,8.19609 l 5.33862,5.27624 0,27.67446 c 0,27.14822 -0.0856,27.75988 -4.49573,32.16813 -5.82902,5.82645 -13.96197,9.55359 -24.4208,11.19147 -13.31591,2.08531 -341.65521,1.67328 -353.14746,-0.44299 l 0,0 z"
       id="path3005-9"
       inkscape:connector-curvature="0" />
    <path
       style="fill:#0000ff;fill-opacity:1"
       d="m 163.2766,427.83123 c -10.49601,-1.933 -19.06572,-7.00845 -23.89431,-14.15158 -2.96948,-4.39278 -3.45496,-8.43259 -3.45496,-28.7493 0,-20.13713 0.50303,-24.39693 3.39731,-28.76026 4.96328,-7.48277 14.94131,-12.9255 26.78292,-14.60919 6.98315,-0.99289 61.03089,-1.31161 180.6073,-1.06487 l 170.64202,0.35191 8.65324,2.91989 c 5.1741,1.74589 10.79971,5.04124 13.99186,8.19609 l 5.33862,5.27624 0,27.67446 c 0,27.14822 -0.0856,27.75987 -4.49573,32.16813 -5.82902,5.82645 -13.96197,9.55359 -24.4208,11.19147 -13.31591,2.08531 -341.65523,1.67328 -353.14747,-0.44299 l 0,0 z"
       id="path3005-9-2"
       inkscape:connector-curvature="0" />
    <text
       xml:space="preserve"
       style="font-size:73.8682785px;font-style:normal;font-weight:normal;line-height:125%;letter-spacing:0px;word-spacing:0px;fill:#000000;fill-opacity:1;stroke:none;font-family:Sans"
       x="143.75412"
       y="343.03033"
       id="text5309"
       sodipodi:linespacing="125%"
       transform="scale(1.0751362,0.93011472)"><tspan
         sodipodi:role="line"
         id="tspan5311"
         x="143.75412"
         y="343.03033">Header 1</tspan></text>
    <text
       xml:space="preserve"
       style="font-size:40px;font-style:normal;font-weight:normal;line-height:125%;letter-spacing:0px;word-spacing:0px;fill:#000000;fill-opacity:1;stroke:none;font-family:Sans"
       x="58.57143"
       y="210.93361"
       id="text5313"
       sodipodi:linespacing="125%"><tspan
         sodipodi:role="line"
         id="tspan5315" /></text>
    <text
       xml:space="preserve"
       style="font-size:41.07772064px;font-style:normal;font-weight:normal;line-height:125%;letter-spacing:0px;word-spacing:0px;fill:#000000;fill-opacity:1;stroke:none;font-family:Sans"
       x="134.90387"
       y="419.55814"
       id="text5325"
       sodipodi:linespacing="125%"
       transform="scale(1.1228346,0.89060312)"><tspan
         sodipodi:role="line"
         id="tspan5327"
         x="134.90387"
         y="419.55814">1st Compressed</tspan><tspan
         sodipodi:role="line"
         x="134.90387"
         y="470.90527"
         id="tspan5329">File</tspan></text>
    <path
       style="fill:#ffa200;fill-opacity:1"
       d="m 156.92836,515.03745 c -10.496,-1.933 -19.06571,-7.00845 -23.8943,-14.15158 -2.96948,-4.39278 -3.45496,-8.43259 -3.45496,-28.74928 0,-20.13714 0.50303,-24.39694 3.39731,-28.76027 4.96328,-7.48277 14.94131,-12.9255 26.78292,-14.60919 6.98315,-0.99289 61.03089,-1.3116 180.60729,-1.06487 l 170.64201,0.35191 8.65325,2.91989 c 5.1741,1.74589 10.79971,5.04124 13.99185,8.19609 l 5.33862,5.27624 0,27.67446 c 0,27.14821 -0.0856,27.75987 -4.49572,32.16812 -5.82902,5.82645 -13.96198,9.55359 -24.42081,11.19147 -13.31591,2.08531 -341.65521,1.67328 -353.14746,-0.44299 l 0,0 z"
       id="path3005-9-0"
       inkscape:connector-curvature="0" />
    <path
       style="fill:#0000ff;fill-opacity:1"
       d="m 156.92835,602.98902 c -10.49601,-1.93299 -19.06571,-7.00844 -23.89431,-14.15157 -2.96948,-4.39278 -3.45496,-8.4326 -3.45496,-28.7493 0,-20.13713 0.50304,-24.39693 3.39731,-28.76025 4.96329,-7.48277 14.94131,-12.9255 26.78293,-14.60919 6.98314,-0.99289 61.03088,-1.31161 180.6073,-1.06487 l 170.64201,0.35191 8.65325,2.91989 c 5.1741,1.74589 10.79971,5.04124 13.99185,8.19609 l 5.33862,5.27623 0,27.67446 c 0,27.14822 -0.0856,27.75987 -4.49572,32.16813 -5.82902,5.82645 -13.96198,9.55359 -24.42081,11.19147 -13.31591,2.08531 -341.65523,1.67328 -353.14747,-0.443 l 0,0 z"
       id="path3005-9-2-7"
       inkscape:connector-curvature="0" />
    <text
       xml:space="preserve"
       style="font-size:73.8682785px;font-style:normal;font-weight:normal;line-height:125%;letter-spacing:0px;word-spacing:0px;fill:#000000;fill-opacity:1;stroke:none;font-family:Sans"
       x="137.84952"
       y="531.34882"
       id="text5309-2"
       sodipodi:linespacing="125%"
       transform="scale(1.0751362,0.93011472)"><tspan
         sodipodi:role="line"
         id="tspan5311-6"
         x="137.84952"
         y="531.34882">Header 2</tspan></text>
    <text
       xml:space="preserve"
       style="font-size:41.07772064px;font-style:normal;font-weight:normal;line-height:125%;letter-spacing:0px;word-spacing:0px;fill:#000000;fill-opacity:1;stroke:none;font-family:Sans"
       x="129.25009"
       y="616.23132"
       id="text5325-1"
       sodipodi:linespacing="125%"
       transform="scale(1.1228346,0.89060312)"><tspan
         sodipodi:role="line"
         id="tspan5327-9"
         x="129.25009"
         y="616.23132">2nd Compressed</tspan><tspan
         sodipodi:role="line"
         x="129.25009"
         y="667.57849"
         id="tspan5329-1">File</tspan></text>
    <flowRoot
       xml:space="preserve"
       id="flowRoot5367"
       style="fill:black;stroke:none;stroke-opacity:1;stroke-width:1px;stroke-linejoin:miter;stroke-linecap:butt;fill-opacity:1;font-family:Sans;font-style:normal;font-weight:normal;font-size:40px;line-height:125%;letter-spacing:0px;word-spacing:0px"><flowRegion
         id="flowRegion5369"><rect
           id="rect5371"
           width="452.85715"
           height="412.85715"
           x="272.85715"
           y="419.50504" /></flowRegion><flowPara
         id="flowPara5373" /></flowRoot>    <path
       style="fill:#aa8800;fill-opacity:1"
       d="m 138.90303,691.68597 c -5.20252,-1.933 -9.45024,-7.00845 -11.84361,-14.15158 -1.47187,-4.39278 -1.7125,-8.43259 -1.7125,-28.74929 0,-20.13714 0.24932,-24.39694 1.68392,-28.76025 2.46014,-7.48278 7.40591,-12.92551 13.2754,-14.60919 3.46132,-0.9929 30.25098,-1.31161 89.52099,-1.06488 l 84.58154,0.35191 4.28913,2.91989 c 2.56462,1.74589 5.35305,5.04125 6.9353,8.19609 l 2.64617,5.27624 0,27.67445 c 0,27.14823 -0.0424,27.75988 -2.22838,32.16814 -2.88925,5.82645 -6.92049,9.55359 -12.10458,11.19146 -6.60025,2.08531 -169.34705,1.67329 -175.04338,-0.44299 l 0,0 z"
       id="path3005-9-2-7-8"
       inkscape:connector-curvature="0" />
    <path
       style="fill:#ffcc00;fill-opacity:1"
       d="m 341.59938,691.68597 c -5.20252,-1.933 -9.45024,-7.00845 -11.84361,-14.15158 -1.47187,-4.39278 -1.7125,-8.43259 -1.7125,-28.74929 0,-20.13714 0.24934,-24.39694 1.68392,-28.76025 2.46014,-7.48278 7.40591,-12.92551 13.2754,-14.60919 3.46132,-0.9929 30.25098,-1.31161 89.52101,-1.06488 l 84.58154,0.35191 4.28913,2.91989 c 2.56462,1.74589 5.35305,5.04125 6.9353,8.19609 l 2.64616,5.27624 0,27.67445 c 0,27.14823 -0.0424,27.75988 -2.22837,32.16814 -2.88926,5.82645 -6.92049,9.55359 -12.10458,11.19146 -6.60026,2.08531 -169.34707,1.67329 -175.0434,-0.44299 l 0,0 z"
       id="path3005-9-2-7-8-8"
       inkscape:connector-curvature="0" />
    <path
       style="fill:#aa8800;fill-opacity:1"
       d="m 138.67917,779.63755 c -5.20253,-1.933 -9.45024,-7.00845 -11.84362,-14.15158 -1.47186,-4.39278 -1.71251,-8.43259 -1.71251,-28.74929 0,-20.13714 0.24934,-24.39694 1.68394,-28.76026 2.46013,-7.48277 7.40591,-12.9255 13.2754,-14.60918 3.46131,-0.9929 30.25098,-1.31161 89.52099,-1.06488 l 84.58154,0.35191 4.28913,2.91989 c 2.56462,1.74589 5.35305,5.04124 6.9353,8.19609 l 2.64616,5.27624 0,27.67445 c 0,27.14822 -0.0424,27.75988 -2.22837,32.16814 -2.88926,5.82645 -6.92049,9.55358 -12.10458,11.19146 -6.60026,2.08531 -169.34707,1.67329 -175.04338,-0.44299 l 0,0 z"
       id="path3005-9-2-7-8-5"
       inkscape:connector-curvature="0" />
    <path
       style="fill:#ffcc00;fill-opacity:1"
       d="m 341.37552,779.63755 c -5.20253,-1.933 -9.45024,-7.00845 -11.84362,-14.15158 -1.47186,-4.39278 -1.71249,-8.43259 -1.71249,-28.74929 0,-20.13714 0.24934,-24.39694 1.68392,-28.76026 2.46013,-7.48277 7.40591,-12.9255 13.2754,-14.60918 3.46131,-0.9929 30.25098,-1.31161 89.521,-1.06488 l 84.58154,0.35191 4.28914,2.91989 c 2.56462,1.74589 5.35304,5.04124 6.9353,8.19609 l 2.64616,5.27624 0,27.67445 c 0,27.14822 -0.0424,27.75988 -2.22838,32.16814 -2.88925,5.82645 -6.92048,9.55358 -12.10458,11.19146 -6.60025,2.08531 -169.34706,1.67329 -175.04339,-0.44299 l 0,0 z"
       id="path3005-9-2-7-8-8-8"
       inkscape:connector-curvature="0" />
    <text
       xml:space="preserve"
       style="font-size:28.6496067px;font-style:normal;font-weight:normal;line-height:125%;letter-spacing:0px;word-spacing:0px;fill:#000000;fill-opacity:1;stroke:none;font-family:Sans"
       x="124.42739"
       y="746.59393"
       id="text5432"
       sodipodi:linespacing="125%"
       transform="scale(1.1946294,0.83707968)"><tspan
         sodipodi:role="line"
         x="124.42739"
         y="746.59393"
         id="tspan5436">mid-</tspan><tspan
         sodipodi:role="line"
         x="124.42739"
         y="782.40594"
         id="tspan5440">metadata</tspan><tspan
         sodipodi:role="line"
         x="124.42739"
         y="818.21796"
         id="tspan5442">for file1</tspan></text>
    <text
       xml:space="preserve"
       style="font-size:28.6496067px;font-style:normal;font-weight:normal;line-height:125%;letter-spacing:0px;word-spacing:0px;fill:#000000;fill-opacity:1;stroke:none;font-family:Sans"
       x="287.50052"
       y="746.48431"
       id="text5432-2"
       sodipodi:linespacing="125%"
       transform="scale(1.1946294,0.83707968)"><tspan
         sodipodi:role="line"
         x="287.50052"
         y="746.48431"
         id="tspan5436-3">small mid-</tspan><tspan
         sodipodi:role="line"
         x="287.50052"
         y="782.29633"
         id="tspan5440-4">metadata</tspan><tspan
         sodipodi:role="line"
         x="287.50052"
         y="818.10834"
         id="tspan5442-9">for file1</tspan></text>
    <text
       xml:space="preserve"
       style="font-size:28.6496067px;font-style:normal;font-weight:normal;line-height:125%;letter-spacing:0px;word-spacing:0px;fill:#000000;fill-opacity:1;stroke:none;font-family:Sans"
       x="290.29993"
       y="855.11554"
       id="text5432-2-3"
       sodipodi:linespacing="125%"
       transform="scale(1.1946294,0.83707968)"><tspan
         sodipodi:role="line"
         x="290.29993"
         y="855.11554"
         id="tspan5436-3-6">small mid-</tspan><tspan
         sodipodi:role="line"
         x="290.29993"
         y="890.92755"
         id="tspan5440-4-2">metadata</tspan><tspan
         sodipodi:role="line"
         x="290.29993"
         y="926.73956"
         id="tspan5442-9-6">for file2</tspan></text>
    <text
       xml:space="preserve"
       style="font-size:28.6496067px;font-style:normal;font-weight:normal;line-height:125%;letter-spacing:0px;word-spacing:0px;fill:#000000;fill-opacity:1;stroke:none;font-family:Sans"
       x="126.30943"
       y="855.11554"
       id="text5432-5"
       sodipodi:linespacing="125%"
       transform="scale(1.1946294,0.83707968)"><tspan
         sodipodi:role="line"
         x="126.30943"
         y="855.11554"
         id="tspan5436-4">mid-</tspan><tspan
         sodipodi:role="line"
         x="126.30943"
         y="890.92755"
         id="tspan5440-1">metadata</tspan><tspan
         sodipodi:role="line"
         x="126.30943"
         y="926.73956"
         id="tspan5442-1">for file2</tspan></text>
    <path
       style="fill:#008000;fill-opacity:1"
       d="m 150.58009,867.58914 c -10.49601,-1.933 -19.06571,-7.00845 -23.89431,-14.15158 -2.96948,-4.39278 -3.45496,-8.43259 -3.45496,-28.74929 0,-20.13714 0.50304,-24.39694 3.39731,-28.76027 4.96329,-7.48277 14.94131,-12.9255 26.78293,-14.60919 6.98314,-0.99289 61.0309,-1.3116 180.6073,-1.06487 l 170.64201,0.35191 8.65325,2.91989 c 5.17409,1.74589 10.79971,5.04124 13.99185,8.19609 l 5.33862,5.27624 0,27.67446 c 0,27.14822 -0.0856,27.75988 -4.49572,32.16813 -5.82902,5.82645 -13.96198,9.55359 -24.42081,11.19147 -13.31591,2.08531 -341.65523,1.67328 -353.14747,-0.44299 l 0,0 z"
       id="path3005-9-6"
       inkscape:connector-curvature="0" />
    <text
       xml:space="preserve"
       style="font-size:95.17874908px;font-style:normal;font-weight:normal;line-height:125%;letter-spacing:0px;word-spacing:0px;fill:#000000;fill-opacity:1;stroke:none;font-family:Sans"
       x="117.98787"
       y="1014.4421"
       id="text5543"
       sodipodi:linespacing="125%"
       transform="scale(1.191945,0.83896489)"><tspan
         sodipodi:role="line"
         id="tspan5545"
         x="117.98787"
         y="1014.4421">Footer</tspan></text>
  </g>
</svg>
