<?xml version="1.0" encoding="UTF-8" standalone="no"?>
<!-- Created with Inkscape (http://www.inkscape.org/) -->

<svg
   xmlns:dc="http://purl.org/dc/elements/1.1/"
   xmlns:cc="http://creativecommons.org/ns#"
   xmlns:rdf="http://www.w3.org/1999/02/22-rdf-syntax-ns#"
   xmlns:svg="http://www.w3.org/2000/svg"
   xmlns="http://www.w3.org/2000/svg"
   xmlns:sodipodi="http://sodipodi.sourceforge.net/DTD/sodipodi-0.dtd"
   xmlns:inkscape="http://www.inkscape.org/namespaces/inkscape"
   width="744.09448819"
   height="1052.3622047"
   id="svg2"
   version="1.1"
   inkscape:version="0.48.2 r9819"
   sodipodi:docname="eziplode_07offsets.svg">
  <defs
     id="defs4">
    <marker
       inkscape:stockid="Arrow2Mend"
       orient="auto"
       refY="0.0"
       refX="0.0"
       id="Arrow2Mend"
       style="overflow:visible;">
      <path
         id="path3882"
         style="font-size:12.0;fill-rule:evenodd;stroke-width:0.62500000;stroke-linejoin:round;"
         d="M 8.7185878,4.0337352 L -2.2072895,0.016013256 L 8.7185884,-4.0017078 C 6.9730900,-1.6296469 6.9831476,1.6157441 8.7185878,4.0337352 z "
         transform="scale(0.6) rotate(180) translate(0,0)" />
    </marker>
    <marker
       inkscape:stockid="Arrow1Lstart"
       orient="auto"
       refY="0.0"
       refX="0.0"
       id="Arrow1Lstart"
       style="overflow:visible">
      <path
         id="path3855"
         d="M 0.0,0.0 L 5.0,-5.0 L -12.5,0.0 L 5.0,5.0 L 0.0,0.0 z "
         style="fill-rule:evenodd;stroke:#000000;stroke-width:1.0pt;marker-start:none"
         transform="scale(0.8) translate(12.5,0)" />
    </marker>
    <marker
       inkscape:stockid="Arrow2Lend"
       orient="auto"
       refY="0.0"
       refX="0.0"
       id="Arrow2Lend"
       style="overflow:visible;">
      <path
         id="path3876"
         style="font-size:12.0;fill-rule:evenodd;stroke-width:0.62500000;stroke-linejoin:round;"
         d="M 8.7185878,4.0337352 L -2.2072895,0.016013256 L 8.7185884,-4.0017078 C 6.9730900,-1.6296469 6.9831476,1.6157441 8.7185878,4.0337352 z "
         transform="scale(1.1) rotate(180) translate(1,0)" />
    </marker>
    <marker
       inkscape:stockid="Arrow1Lend"
       orient="auto"
       refY="0.0"
       refX="0.0"
       id="Arrow1Lend"
       style="overflow:visible;">
      <path
         id="path3858"
         d="M 0.0,0.0 L 5.0,-5.0 L -12.5,0.0 L 5.0,5.0 L 0.0,0.0 z "
         style="fill-rule:evenodd;stroke:#000000;stroke-width:1.0pt;marker-start:none;"
         transform="scale(0.8) rotate(180) translate(12.5,0)" />
    </marker>
  </defs>
  <sodipodi:namedview
     id="base"
     pagecolor="#ffffff"
     bordercolor="#666666"
     borderopacity="1.0"
     inkscape:pageopacity="0.0"
     inkscape:pageshadow="2"
     inkscape:zoom="0.49497475"
     inkscape:cx="238.33325"
     inkscape:cy="581.97881"
     inkscape:document-units="px"
     inkscape:current-layer="layer1"
     showgrid="false"
     inkscape:snap-global="true"
     inkscape:window-width="1440"
     inkscape:window-height="842"
     inkscape:window-x="0"
     inkscape:window-y="30"
     inkscape:window-maximized="1" />
  <metadata
     id="metadata7">
    <rdf:RDF>
      <cc:Work
         rdf:about="">
        <dc:format>image/svg+xml</dc:format>
        <dc:type
           rdf:resource="http://purl.org/dc/dcmitype/StillImage" />
        <dc:title />
      </cc:Work>
    </rdf:RDF>
  </metadata>
  <g
     inkscape:label="Layer 1"
     inkscape:groupmode="layer"
     id="layer1">
    <path
       style="fill:#ffa200;fill-opacity:1"
       d="m 230.55283,333.79325 c -10.94236,-3.45419 -19.8765,-12.5238 -24.91043,-25.28826 -3.09576,-7.8497 -3.60189,-15.06866 -3.60189,-51.37372 0,-35.98418 0.52443,-43.59626 3.54179,-51.39333 5.17435,-13.3714 15.5767,-23.09731 27.92188,-26.10599 7.28011,-1.77426 63.62627,-2.34378 188.28775,-1.90288 l 177.8987,0.62884 9.02122,5.21772 c 5.39413,3.11983 11.25898,9.00848 14.58688,14.64605 l 5.56565,9.42842 0,49.45304 c 0,48.51268 -0.0892,49.6057 -4.68691,57.48304 -6.07691,10.41161 -14.55572,17.07185 -25.45932,19.99867 -13.88217,3.72635 -356.18436,2.99008 -368.16532,-0.7916 l 0,0 z"
       id="path3005-9"
       inkscape:connector-curvature="0" />
    <path
       style="fill:#0000ff;fill-opacity:1"
       d="m 230.55282,490.95889 c -10.94236,-3.45419 -19.8765,-12.5238 -24.91043,-25.28825 -3.09577,-7.84971 -3.60189,-15.06868 -3.60189,-51.37375 0,-35.98417 0.52442,-43.59624 3.54178,-51.39332 5.17435,-13.37138 15.57671,-23.0973 27.92189,-26.10598 7.28011,-1.77426 63.62627,-2.3438 188.28776,-1.90288 l 177.8987,0.62885 9.02122,5.21772 c 5.39413,3.11982 11.25898,9.00847 14.58688,14.64605 l 5.56565,9.42841 0,49.45305 c 0,48.51267 -0.0892,49.60567 -4.68691,57.48304 -6.07691,10.41161 -14.55572,17.07184 -25.45932,19.99867 -13.88217,3.72635 -356.18438,2.99007 -368.16533,-0.79161 l 0,0 z"
       id="path3005-9-2"
       inkscape:connector-curvature="0" />
    <text
       xml:space="preserve"
       style="font-size:100.8227005px;font-style:normal;font-weight:normal;line-height:125%;letter-spacing:0px;word-spacing:0px;fill:#000000;fill-opacity:1;stroke:none;font-family:Sans"
       x="269.67865"
       y="243.55626"
       id="text5309"
       sodipodi:linespacing="125%"
       transform="scale(0.82120184,1.2177274)"><tspan
         sodipodi:role="line"
         id="tspan5311"
         x="269.67865"
         y="243.55626">Header 1</tspan></text>
    <text
       xml:space="preserve"
       style="font-size:33.73790741px;font-style:normal;font-weight:normal;line-height:125%;letter-spacing:0px;word-spacing:0px;fill:#000000;fill-opacity:1;stroke:none;font-family:Sans"
       x="56.339924"
       y="325.8512"
       id="text5313"
       sodipodi:linespacing="125%"
       transform="scale(1.0618826,0.94172367)"><tspan
         sodipodi:role="line"
         id="tspan5315"
         x="56.339924"
         y="325.8512" /></text>
    <text
       xml:space="preserve"
       style="font-size:56.06692123px;font-style:normal;font-weight:normal;line-height:125%;letter-spacing:0px;word-spacing:0px;fill:#000000;fill-opacity:1;stroke:none;font-family:Sans"
       x="254.47794"
       y="338.04251"
       id="text5325"
       sodipodi:linespacing="125%"
       transform="scale(0.85763448,1.1659979)"><tspan
         sodipodi:role="line"
         id="tspan5327"
         x="254.47794"
         y="338.04251">1st Compressed</tspan><tspan
         sodipodi:role="line"
         x="254.47794"
         y="408.12616"
         id="tspan5329">File</tspan></text>
    <flowRoot
       xml:space="preserve"
       id="flowRoot5367"
       style="font-size:40px;font-style:normal;font-weight:normal;line-height:125%;letter-spacing:0px;word-spacing:0px;fill:#000000;fill-opacity:1;stroke:none;font-family:Sans"
       transform="matrix(0.89564242,0,0,0.79429462,7.3673289,139.31836)"><flowRegion
         id="flowRegion5369"><rect
           id="rect5371"
           width="452.85715"
           height="412.85715"
           x="272.85715"
           y="419.50504" /></flowRegion><flowPara
         id="flowPara5373" /></flowRoot>    <path
       style="fill:#aa8800;fill-opacity:1"
       d="m 173.99791,637.65901 c -4.65959,-1.53538 -8.46403,-5.56678 -10.60763,-11.24053 -1.31827,-3.48916 -1.53379,-6.69796 -1.53379,-22.8354 0,-15.99483 0.22331,-19.37836 1.5082,-22.84412 2.20339,-5.94353 6.63304,-10.26666 11.89,-11.604 3.1001,-0.78865 27.09406,-1.0418 80.17879,-0.84583 l 75.75482,0.27952 3.84153,2.31926 c 2.29698,1.38675 4.79442,4.00423 6.21155,6.51011 l 2.37002,4.19089 0,21.98166 c 0,21.5637 -0.038,22.04953 -1.99583,25.55098 -2.58774,4.62792 -6.19829,7.58837 -10.84138,8.88932 -5.91146,1.65635 -151.6744,1.32909 -156.77628,-0.35186 l 0,0 z"
       id="path3005-9-2-7-8"
       inkscape:connector-curvature="0" />
    <path
       style="fill:#ffcc00;fill-opacity:1"
       d="m 355.54136,637.65901 c -4.65959,-1.53538 -8.46403,-5.56678 -10.60764,-11.24053 -1.31827,-3.48916 -1.53378,-6.69796 -1.53378,-22.8354 0,-15.99483 0.22332,-19.37836 1.50819,-22.84412 2.2034,-5.94353 6.63304,-10.26666 11.89001,-11.604 3.1001,-0.78865 27.09406,-1.0418 80.17881,-0.84583 l 75.75482,0.27952 3.84152,2.31926 c 2.29699,1.38675 4.79442,4.00423 6.21155,6.51011 l 2.37002,4.19089 0,21.98166 c 0,21.5637 -0.038,22.04953 -1.99583,25.55098 -2.58774,4.62792 -6.19828,7.58837 -10.84137,8.88932 -5.91148,1.65635 -151.67442,1.32909 -156.7763,-0.35186 l 0,0 z"
       id="path3005-9-2-7-8-8"
       inkscape:connector-curvature="0" />
    <path
       style="fill:#aa8800;fill-opacity:1"
       d="m 173.79742,707.51847 c -4.6596,-1.53537 -8.46404,-5.56677 -10.60764,-11.24052 -1.31827,-3.48916 -1.53381,-6.69796 -1.53381,-22.83541 0,-15.99482 0.22333,-19.37836 1.50821,-22.84412 2.2034,-5.94352 6.63305,-10.26665 11.89001,-11.60399 3.10011,-0.78866 27.09406,-1.04181 80.1788,-0.84583 l 75.75481,0.27952 3.84153,2.31925 c 2.29698,1.38676 4.79442,4.00423 6.21155,6.51011 l 2.37001,4.19089 0,21.98167 c 0,21.56369 -0.038,22.04952 -1.99582,25.55098 -2.58775,4.62792 -6.19829,7.58836 -10.84138,8.88932 -5.91147,1.65635 -151.67442,1.32908 -156.77627,-0.35187 l 0,0 z"
       id="path3005-9-2-7-8-5"
       inkscape:connector-curvature="0" />
    <path
       style="fill:#ffcc00;fill-opacity:1"
       d="m 355.34086,707.51847 c -4.6596,-1.53537 -8.46403,-5.56677 -10.60764,-11.24052 -1.31826,-3.48916 -1.53378,-6.69796 -1.53378,-22.83541 0,-15.99482 0.22332,-19.37836 1.50819,-22.84412 2.20339,-5.94352 6.63305,-10.26665 11.89001,-11.60399 3.1001,-0.78866 27.09406,-1.04181 80.1788,-0.84583 l 75.75482,0.27952 3.84153,2.31925 c 2.29699,1.38676 4.79441,4.00423 6.21155,6.51011 l 2.37002,4.19089 0,21.98167 c 0,21.56369 -0.038,22.04952 -1.99584,25.55098 -2.58773,4.62792 -6.19827,7.58836 -10.84137,8.88932 -5.91146,1.65635 -151.67441,1.32908 -156.77629,-0.35187 l 0,0 z"
       id="path3005-9-2-7-8-8-8"
       inkscape:connector-curvature="0" />
    <text
       xml:space="preserve"
       style="font-size:24.16444397px;font-style:normal;font-weight:normal;line-height:125%;letter-spacing:0px;word-spacing:0px;fill:#000000;fill-opacity:1;stroke:none;font-family:Sans"
       x="144.04005"
       y="741.67139"
       id="text5432"
       sodipodi:linespacing="125%"
       transform="scale(1.2685562,0.78829775)"><tspan
         sodipodi:role="line"
         x="144.04005"
         y="741.67139"
         id="tspan5436">mid-</tspan><tspan
         sodipodi:role="line"
         x="144.04005"
         y="771.87695"
         id="tspan5440">metadata</tspan><tspan
         sodipodi:role="line"
         x="144.04005"
         y="802.08246"
         id="tspan5442">for file1</tspan></text>
    <text
       xml:space="preserve"
       style="font-size:24.16444397px;font-style:normal;font-weight:normal;line-height:125%;letter-spacing:0px;word-spacing:0px;fill:#000000;fill-opacity:1;stroke:none;font-family:Sans"
       x="281.58371"
       y="741.57892"
       id="text5432-2"
       sodipodi:linespacing="125%"
       transform="scale(1.2685562,0.78829775)"><tspan
         sodipodi:role="line"
         x="281.58371"
         y="741.57892"
         id="tspan5436-3">small mid-</tspan><tspan
         sodipodi:role="line"
         x="281.58371"
         y="771.78448"
         id="tspan5440-4">metadata</tspan><tspan
         sodipodi:role="line"
         x="281.58371"
         y="801.99005"
         id="tspan5442-9">for file1</tspan></text>
    <text
       xml:space="preserve"
       style="font-size:24.16444397px;font-style:normal;font-weight:normal;line-height:125%;letter-spacing:0px;word-spacing:0px;fill:#000000;fill-opacity:1;stroke:none;font-family:Sans"
       x="283.94485"
       y="833.20367"
       id="text5432-2-3"
       sodipodi:linespacing="125%"
       transform="scale(1.2685562,0.78829775)"><tspan
         sodipodi:role="line"
         x="283.94485"
         y="833.20367"
         id="tspan5436-3-6">small mid-</tspan><tspan
         sodipodi:role="line"
         x="283.94485"
         y="863.40924"
         id="tspan5440-4-2">metadata</tspan><tspan
         sodipodi:role="line"
         x="283.94485"
         y="893.61481"
         id="tspan5442-9-6">for file2</tspan></text>
    <text
       xml:space="preserve"
       style="font-size:24.16444397px;font-style:normal;font-weight:normal;line-height:125%;letter-spacing:0px;word-spacing:0px;fill:#000000;fill-opacity:1;stroke:none;font-family:Sans"
       x="145.62746"
       y="833.20367"
       id="text5432-5"
       sodipodi:linespacing="125%"
       transform="scale(1.2685562,0.78829775)"><tspan
         sodipodi:role="line"
         x="145.62746"
         y="833.20367"
         id="tspan5436-4">mid-</tspan><tspan
         sodipodi:role="line"
         x="145.62746"
         y="863.40924"
         id="tspan5440-1">metadata</tspan><tspan
         sodipodi:role="line"
         x="145.62746"
         y="893.61481"
         id="tspan5442-1">for file2</tspan></text>
    <path
       style="fill:#008000;fill-opacity:1"
       d="m 299.61041,855.67272 c -9.40066,-1.53537 -17.07606,-5.56681 -21.40075,-11.24054 -2.65959,-3.48918 -3.09441,-6.69797 -3.09441,-22.83541 0,-15.99483 0.45054,-19.37836 3.04278,-22.84413 4.44532,-5.94353 13.38207,-10.26666 23.98792,-11.604 6.25439,-0.78865 54.66186,-1.0418 161.75956,-0.84582 l 152.83422,0.27952 7.75022,2.31925 c 4.63413,1.38675 9.67267,4.00423 12.53169,6.51011 l 4.7815,4.19089 0,21.98167 c 0,21.56371 -0.0767,22.0495 -4.02656,25.55099 -5.22072,4.62787 -12.50494,7.58837 -21.87232,8.88934 -11.92629,1.65635 -306.0009,1.32902 -316.29385,-0.35187 l 0,0 z"
       id="path3005-9-6"
       inkscape:connector-curvature="0" />
    <text
       xml:space="preserve"
       style="font-size:80.27828979px;font-style:normal;font-weight:normal;line-height:125%;letter-spacing:0px;word-spacing:0px;fill:#000000;fill-opacity:1;stroke:none;font-family:Sans"
       x="229.67679"
       y="1066.4338"
       id="text5543"
       sodipodi:linespacing="125%"
       transform="scale(1.2657057,0.79007309)"><tspan
         sodipodi:role="line"
         id="tspan5545"
         x="229.67679"
         y="1066.4338">Footer</tspan></text>
    <path
       style="fill:none;stroke:#008900;stroke-width:3.37379074;stroke-linecap:butt;stroke-linejoin:miter;stroke-miterlimit:4;stroke-opacity:1;stroke-dasharray:none"
       d="M 282.45751,799.32446 C -173.33095,608.17811 137.83452,633.64579 166.02399,579.19138 l 0,0"
       id="path8548"
       inkscape:connector-curvature="0"
       sodipodi:nodetypes="ccc" />
    <rect
       style="opacity:0.49583333;fill:#e4e200;fill-opacity:1;stroke:#eae400;stroke-width:3.37379074;stroke-miterlimit:4;stroke-opacity:1;stroke-dasharray:none"
       id="rect8550"
       width="431.18784"
       height="196.30424"
       x="135.31625"
       y="540.61133"
       ry="82.908134" />
    <path
       style="fill:none;stroke:#ffdc00;stroke-width:5.06068611;stroke-linecap:butt;stroke-linejoin:miter;stroke-miterlimit:4;stroke-opacity:1;stroke-dasharray:none"
       d="m 278.61903,800.45917 58.85651,-78.29475 0,0"
       id="path8552"
       inkscape:connector-curvature="0" />
    <path
       style="fill:none;stroke:#ff0000;stroke-width:3.37379074;stroke-linecap:butt;stroke-linejoin:miter;stroke-miterlimit:4;stroke-opacity:1;stroke-dasharray:none"
       d="M 168.58297,574.65255 C -132.48712,103.74669 116.75003,229.32975 215.92406,192.25642 l 0,0"
       id="path8573"
       inkscape:connector-curvature="0"
       sodipodi:nodetypes="ccc" />
    <path
       style="fill:none;stroke:#ff0000;stroke-width:3.37379074;stroke-linecap:butt;stroke-linejoin:miter;stroke-miterlimit:4;stroke-opacity:1;stroke-dasharray:none"
       d="M 166.02399,642.73495 C 28.696046,523.69721 -95.522491,401.96989 214.64458,191.12172 l -2.55898,0"
       id="path8575"
       inkscape:connector-curvature="0"
       sodipodi:nodetypes="ccc" />
  </g>
</svg>
